# AST/ASF file generated using VICON BodyLanguage
# -----------------------------------------------
:version 1.10
:name VICON
:units
  mass 1.0
  length 0.45
  angle deg
:documentation
   .ast/.asf automatically generated from VICON data using
   VICON BodyBuilder and BodyLanguage model FoxedUp or BRILLIANT.MOD
:root
   order TX TY TZ RX RY RZ
   axis XYZ
   position 0 0 0  
   orientation 0 0 0 
:bonedata
  begin
     id 1 
     name lhipjoint
     direction 0.627457 -0.725269 0.283342 
     length 2.53237 
     axis 0 0 0  XYZ
  end
  begin
     id 2 
     name lfemur
     direction 0.34202 -0.939693 0  
     length 7.32496  
     axis 0 0 20  XYZ
    dof rx ry rz
    limits (-160.0 20.0)
           (-70.0 70.0)
           (-60.0 70.0)
  end
  begin
     id 3 
     name ltibia
     direction 0.34202 -0.939693 0   
     length 7.69674   
     axis 0 0 20   XYZ
    dof rx
    limits (-10.0 170.0)
  end
  begin
     id 4 
     name lfoot
     direction 0.127289 -0.349722 0.928166   
     length 1.8612   
     axis -90 7.62852e-016 20   XYZ
    dof rx rz
    limits (-45.0 90.0)
           (-70.0 20.0)
  end
  begin
     id 5 
     name ltoes
     direction 1.53561e-011 -4.21864e-011 1   
     length 0.925608   
     axis -90 7.62852e-016 20   XYZ
    dof rx
    limits (-90.0 20.0)
  end
  begin
     id 6 
     name rhipjoint
     direction -0.609094 -0.738725 0.288599   
     length 2.48624  
     axis 0 0 0  XYZ 
  end
  begin
     id 7 
     name rfemur
     direction -0.34202 -0.939693 0   
     length 7.44259   
     axis 0 0 -20   XYZ
    dof rx ry rz
    limits (-160.0 20.0)
           (-70.0 70.0)
           (-70.0 60.0)
  end
  begin
     id 8 
     name rtibia
     direction -0.34202 -0.939693 0   
     length 7.7781   
     axis 0 0 -20   XYZ
    dof rx
    limits (-10.0 170.0)
 end
 begin
     id 9 
     name rfoot
     direction -0.107015 -0.294021 0.949789   
     length 2.14741  
     axis -90 -7.62852e-016 -20   XYZ
    dof rx rz
    limits (-45.0 90.0)
           (-20.0 70.0)
  end
  begin
     id 10 
     name rtoes
     direction -1.53497e-011 -4.21924e-011 1   
     length 1.0706   
     axis -90 -7.62852e-016 -20   XYZ
    dof rx
    limits (-90.0 20.0)
  end
  begin
     id 11 
     name lowerback
     direction -0.0142066 0.998112 -0.0597545   
     length 1.86627   
     axis 0 0 0   XYZ
    dof rx ry rz
    limits (-20.0 45.0)
           (-30.0 30.0)
           (-30.0 30.0)
  end
  begin
     id 12 
     name upperback
     direction 0.00547294 0.999744 0.0219437   
     length 1.86272   
     axis 0 0 0   XYZ
    dof rx ry rz
    limits (-20.0 45.0)
           (-30.0 30.0)
           (-30.0 30.0)
  end
  begin
     id 13 
     name thorax
     direction 0.0116162 0.998704 0.0495538   
     length 1.8703   
     axis 0 0 0   XYZ
    dof rx ry rz
    limits (-20.0 45.0)
           (-30.0 30.0)
           (-30.0 30.0)
  end
  begin
     id 14 
     name lowerneck
     direction -0.0106574 0.998739 0.0490586   
     length 1.8074   
     axis 0 0 0   XYZ
    dof rx ry rz
    limits (-20.0 45.0)
           (-30.0 30.0)
           (-30.0 30.0)
  end
  begin
     id 15 
     name upperneck
     direction 0.030527 0.976587 -0.212944   
     length 1.80681   
     axis 0 0 0   XYZ
    dof rx ry rz
    limits (-20.0 45.0)
           (-30.0 30.0)
           (-30.0 30.0)
  end
  begin
     id 16
     name head
     direction 0.00869225 0.997035 -0.0764531  
     length 1.8313  
     axis 0 0 0   XYZ
    dof rx ry rz
    limits (-20.0 45.0)
           (-30.0 30.0)
           (-30.0 30.0)
  end
  begin
     id 17 
     name lclavicle
     direction 0.915958 0.399447 0.0382386  
     length 3.78965  
     axis 0 0 0   XYZ
    dof ry rz
    limits (-20.0 10.0)
           (0.0 20.0)
  end
  begin
     id 18 
     name lhumerus
     direction 1 -4.48967e-011 3.19303e-027   
     length 4.78095   
     axis -180 -30 -90   XYZ
    dof rx ry rz
    limits (-60.0 90.0)
           (-90.0 90.0)
           (-90.0 90.0)
  end
  begin
     id 19
     name lradius
     direction 1 -4.48967e-011 -3.77974e-027   
     length 3.58615   
     axis -180 -30 -90   XYZ
    dof rx
    limits (-10.0 170.0)
  end
  begin
     id 20
     name lwrist
     direction 1 -4.48927e-011 1.2807e-027   
     length 1.79307   
     axis 1.91374e-015 90 90   XYZ
    dof ry
    limits (-180.0 0.0)
 end
  begin
     id 21 
     name lhand
     direction 1 -4.49036e-011 2.5614e-027   
     length 0.659812   
     axis -1.63439e-015 90 90   XYZ
    dof rx rz
    limits (-90.0 90.0)
           (-45.0 45.0)
  end
  begin
     id 22 
     name lfingers
     direction 1 -4.49052e-011 5.1228e-027   
     length 0.531957   
     axis -3.26879e-015 90 90   XYZ
    dof rx
    limits (0.0 90.0)
  end
  begin
     id 23
     name lthumb
     direction 0.707107 -6.35012e-011 0.707107   
     length 0.763787   
     axis -90 45 2.85299e-015   XYZ
    dof rx rz
    limits (-45.0 45.0)
           (-45.0 45.0)
  end
  begin
     id 24 
     name rclavicle
     direction -0.895351 0.435135 0.0948887   
     length 3.70497  
     axis 0 0 0   XYZ 
    dof ry rz
    limits (-10.0 20.0)
           (-20.0 0.0)
  end
  begin
     id 25 
     name rhumerus
     direction -1 -4.48971e-011 2.38946e-027  
     length 4.48913   
     axis -180 30 90   XYZ
    dof rx ry rz
    limits (-90.0 60.0)
           (-90.0 90.0)
           (-90.0 90.0)
  end
  begin
     id 26 
     name rradius
     direction -1 -4.4895e-011 4.38668e-027   
     length 3.7051   
     axis -180 30 90   XYZ
    dof rx
    limits (-10.0 170.0)
  end
  begin
     id 27 
     name rwrist
     direction -1 -4.49007e-011 1.2807e-027   
     length 1.85255   
     axis 1.91374e-015 -90 -90   XYZ
    dof ry
    limits (-180.0 0.0)
  end
  begin
     id 28
     name rhand
     direction -1 -4.48851e-011 2.5614e-027   
     length 0.449136   
     axis -1.63439e-015 -90 -90   XYZ
    dof rx rz
    limits (-90.0 90.0)
           (-45.0 45.0)
  end
  begin
     id 29
     name rfingers
     direction -1 -4.49128e-011 5.1228e-027   
     length 0.362105   
     axis -3.26879e-015 -90 -90   XYZ
    dof rx
    limits (0.0 90.0)
  end
  begin
     id 30
     name rthumb
     direction -0.707107 -6.34851e-011 0.707107   
     length 0.519912   
     axis -90 -45 -2.85299e-015   XYZ
    dof rx rz
    limits (-45.0 45.0)
           (-45.0 45.0)
  end
:hierarchy
  begin
    root lhipjoint rhipjoint lowerback
    lhipjoint lfemur
    lfemur ltibia
    ltibia lfoot
    lfoot ltoes
    rhipjoint rfemur
    rfemur rtibia
    rtibia rfoot
    rfoot rtoes
    lowerback upperback
    upperback thorax
    thorax lowerneck lclavicle rclavicle
    lowerneck upperneck
    upperneck head
    lclavicle lhumerus
    lhumerus lradius
    lradius lwrist
    lwrist lhand lthumb
    lhand lfingers
    rclavicle rhumerus
    rhumerus rradius
    rradius rwrist
    rwrist rhand rthumb
    rhand rfingers
  end

#!OML:ASF I:\Actors\actors\Patient Classification 2\Patient 1\Session 1\actor1.ASF
:FULLY-SPECIFIED
:DEGREES
40
root -1.11355 18.0869 5.77811 -1.93539 -1.94856 -4.96736
lowerback 2.74264 1.64609 3.1661
upperback -0.854095 2.32204 0.449495
thorax -2.30805 1.11583 -1.41824
lowerneck -12.5371 -2.64909 -0.54055
upperneck 17.642 -3.85142 1.63178
head 7.53728 -1.72346 0.232831
rclavicle -3.23025e-014 -4.77083e-015
rhumerus -48.9275 -3.36619 -85.5591
rradius 42.3555
rwrist 8.307
rhand -8.47648 -27.5258
rfingers 7.12502
rthumb 17.4503 -56.7625
lclavicle -3.23025e-014 -4.77083e-015
lhumerus -41.5305 8.72916 85.4799
lradius 36.2942
lwrist -9.36826
lhand -4.21328 -24.9329
lfingers 7.12502
lthumb 21.5491 3.88828
rfemur 11.9791 15.7864 24.3843
rtibia -1.59028e-015
rfoot -28.4894 -21.1075
rtoes 6.97467
lfemur 20.9783 -10.0803 -13.0531
ltibia -20.0344
lfoot -4.87709 22.7184
ltoes -6.04559
41
root -1.11399 18.0874 5.77833 -1.92787 -1.95588 -4.95979
lowerback 2.72643 1.65781 3.16916
upperback -0.865529 2.33703 0.433052
thorax -2.3092 1.12301 -1.43714
lowerneck -12.5102 -2.65475 -0.476753
upperneck 17.669 -3.86387 1.58515
head 7.53925 -1.72949 0.206062
rclavicle 1.89839e-014 3.97569e-015
rhumerus -48.9348 -3.42353 -85.5626
rradius 42.2572
rwrist 8.10468
rhand -8.46159 -27.7493
rfingers 7.12502
rthumb 17.4646 -56.9848
lclavicle 1.89839e-014 3.97569e-015
lhumerus -41.5204 8.77711 85.4275
lradius 36.2581
lwrist -9.42466
lhand -4.15917 -24.9392
lfingers 7.12502
lthumb 21.6011 3.876
rfemur 11.9709 15.7938 24.3776
rtibia 0
rfoot -28.4587 -21.1433
rtoes 6.95936
lfemur 20.9652 -10.0876 -13.0646
ltibia -20.0163
lfoot -4.8878 22.736
ltoes -6.25241
42
root -1.11409 18.0871 5.77878 -1.9063 -1.96192 -4.9446
lowerback 2.70855 1.67676 3.17964
upperback -0.892306 2.362 0.406994
thorax -2.32404 1.1346 -1.4707
lowerneck -12.5226 -2.64274 -0.398112
upperneck 17.7345 -3.84676 1.49182
head 7.55917 -1.72408 0.163809
rclavicle -4.96962e-015 3.97569e-015
rhumerus -48.9927 -3.48752 -85.5755
rradius 42.3842
rwrist 8.25137
rhand -8.36409 -27.7637
rfingers 7.12502
rthumb 17.5585 -56.9908
lclavicle -4.96962e-015 3.97569e-015
lhumerus -41.5212 8.78448 85.3885
lradius 36.2144
lwrist -9.4551
lhand -4.14219 -24.9517
lfingers 7.12502
lthumb 21.6174 3.86164
rfemur 11.9492 15.8035 24.3512
rtibia 1.59028e-015
rfoot -28.4666 -21.0888
rtoes 7.13587
lfemur 20.9299 -10.0943 -13.0823
ltibia -19.9852
lfoot -4.92866 22.7385
ltoes -6.19133
43
root -1.11401 18.0874 5.77923 -1.90281 -1.96001 -4.92623
lowerback 2.70685 1.68139 3.17797
upperback -0.90841 2.36817 0.396136
thorax -2.33898 1.13721 -1.48144
lowerneck -12.5448 -2.63858 -0.435105
upperneck 17.8072 -3.84256 1.52926
head 7.58852 -1.72011 0.181732
rclavicle 4.84538e-015 5.56597e-015
rhumerus -49.0468 -3.47548 -85.584
rradius 42.5357
rwrist 8.38135
rhand -8.26906 -27.7861
rfingers 7.12502
rthumb 17.6499 -57.005
lclavicle 4.84538e-015 5.56597e-015
lhumerus -41.5454 8.8093 85.3807
lradius 36.2148
lwrist -9.41916
lhand -4.17016 -24.9338
lfingers 7.12502
lthumb 21.5906 3.8826
rfemur 11.9452 15.8032 24.3291
rtibia 2.70347e-014
rfoot -28.4281 -21.1344
rtoes 6.88419
lfemur 20.9134 -10.1166 -13.1057
ltibia -19.9557
lfoot -4.9558 22.7313
ltoes -6.03647
44
root -1.11397 18.0883 5.77972 -1.9093 -1.943 -4.90548
lowerback 2.70641 1.67931 3.16464
upperback -0.919294 2.36511 0.39443
thorax -2.35054 1.13557 -1.47583
lowerneck -12.5333 -2.64907 -0.591758
upperneck 17.8512 -3.85773 1.69118
head 7.60774 -1.72219 0.258722
rclavicle 1.15544e-014 3.97569e-016
rhumerus -49.0705 -3.45168 -85.5623
rradius 42.5923
rwrist 8.35243
rhand -8.23749 -27.8377
rfingers 7.12502
rthumb 17.6803 -57.0539
lclavicle 1.15544e-014 3.97569e-016
lhumerus -41.6075 8.80432 85.4042
lradius 36.2897
lwrist -9.31851
lhand -4.2079 -24.887
lfingers 7.12502
lthumb 21.5543 3.93353
rfemur 11.9526 15.7853 24.3132
rtibia 1.11319e-014
rfoot -28.3576 -21.2707
rtoes 6.36324
lfemur 20.9065 -10.1151 -13.1266
ltibia -19.9348
lfoot -4.94935 22.6917
ltoes -5.91948
45
root -1.11458 18.0881 5.78023 -1.90715 -1.94372 -4.89297
lowerback 2.68819 1.68432 3.15358
upperback -0.9348 2.37108 0.396617
thorax -2.3565 1.13847 -1.46735
lowerneck -12.4822 -2.65578 -0.678901
upperneck 17.8682 -3.86217 1.75548
head 7.60742 -1.72433 0.294232
rclavicle 5.46658e-016 -3.97569e-016
rhumerus -49.0296 -3.47089 -85.5026
rradius 42.7095
rwrist 7.95736
rhand -7.78011 -28.0447
rfingers 7.12502
rthumb 18.1204 -57.2207
lclavicle 5.46658e-016 -3.97569e-016
lhumerus -41.6789 8.79138 85.4185
lradius 36.3737
lwrist -9.2468
lhand -4.18334 -24.8554
lfingers 7.12502
lthumb 21.5779 3.96245
rfemur 11.9539 15.7861 24.302
rtibia 7.95139e-015
rfoot -28.4136 -21.2292
rtoes 6.54794
lfemur 20.8942 -10.081 -13.1315
ltibia -19.9169
lfoot -4.95957 22.6803
ltoes -5.99377
46
root -1.1154 18.0868 5.78094 -1.92218 -1.97322 -4.88059
lowerback 2.67827 1.69781 3.14187
upperback -0.939557 2.38831 0.394356
thorax -2.35536 1.1472 -1.46361
lowerneck -12.4358 -2.67176 -0.670188
upperneck 17.8957 -3.88847 1.76391
head 7.60854 -1.73562 0.293338
rclavicle 1.45361e-014 9.93923e-015
rhumerus -48.9444 -3.50117 -85.4291
rradius 42.9303
rwrist 7.10752
rhand -6.84647 -28.5899
rfingers 7.12502
rthumb 19.0185 -57.6801
lclavicle 1.45361e-014 9.93923e-015
lhumerus -41.718 8.80508 85.4036
lradius 36.4081
lwrist -9.25959
lhand -4.14096 -24.8556
lfingers 7.12502
lthumb 21.6186 3.95763
rfemur 11.9789 15.8148 24.2955
rtibia -1.43125e-014
rfoot -28.4849 -21.1282
rtoes 6.96034
lfemur 20.9146 -10.0372 -13.1439
ltibia -19.9084
lfoot -4.96507 22.6977
ltoes -6.10622
47
root -1.11538 18.0861 5.78154 -1.94101 -1.99722 -4.87249
lowerback 2.69051 1.71403 3.14897
upperback -0.946188 2.41051 0.380887
thorax -2.36716 1.1578 -1.4829
lowerneck -12.4749 -2.68964 -0.673668
upperneck 17.9952 -3.92466 1.81245
head 7.6499 -1.74719 0.304896
rclavicle 2.49723e-014 8.34896e-015
rhumerus -48.8967 -3.52689 -85.3957
rradius 43.1125
rwrist 6.64953
rhand -6.39473 -29.0163
rfingers 7.12502
rthumb 19.4529 -58.0632
lclavicle 2.49723e-014 8.34896e-015
lhumerus -41.7415 8.80722 85.3821
lradius 36.4259
lwrist -9.28992
lhand -4.13401 -24.8425
lfingers 7.12502
lthumb 21.6253 3.96991
rfemur 12.0049 15.8376 24.2937
rtibia -1.90833e-014
rfoot -28.4537 -21.1408
rtoes 6.89353
lfemur 20.9498 -10.0058 -13.1595
ltibia -19.9169
lfoot -4.94889 22.7074
ltoes -6.15337
48
root -1.11505 18.0856 5.78157 -1.95112 -2.0079 -4.88532
lowerback 2.69714 1.71976 3.17523
upperback -0.955275 2.41958 0.381081
thorax -2.37879 1.16163 -1.49817
lowerneck -12.5345 -2.68869 -0.701631
upperneck 18.1007 -3.92638 1.84289
head 7.69657 -1.74541 0.317805
rclavicle 1.26477e-014 -6.75868e-015
rhumerus -48.8397 -3.53722 -85.3527
rradius 43.1806
rwrist 6.67058
rhand -6.33525 -29.0948
rfingers 7.12502
rthumb 19.5101 -58.136
lclavicle 1.26477e-014 -6.75868e-015
lhumerus -41.7509 8.83702 85.3716
lradius 36.4198
lwrist -9.30515
lhand -4.13182 -24.8427
lfingers 7.12502
lthumb 21.6274 3.9695
rfemur 12.0129 15.8477 24.3078
rtibia 4.77083e-015
rfoot -28.4675 -21.1258
rtoes 6.95467
lfemur 20.9737 -9.99927 -13.1485
ltibia -19.9302
lfoot -4.95932 22.6928
ltoes -6.00897
49
root -1.11549 18.0849 5.78135 -1.97377 -2.01593 -4.89494
lowerback 2.69489 1.70126 3.16068
upperback -0.952966 2.39488 0.408662
thorax -2.37808 1.14978 -1.46057
lowerneck -12.4955 -2.66231 -0.665168
upperneck 18.0806 -3.87799 1.74734
head 7.67946 -1.72953 0.286193
rclavicle 3.14825e-014 1.03368e-014
rhumerus -48.7065 -3.48772 -85.282
rradius 43.1668
rwrist 6.71615
rhand -6.21247 -28.9358
rfingers 7.12502
rthumb 19.6281 -57.965
lclavicle 3.14825e-014 1.03368e-014
lhumerus -41.752 8.94219 85.3613
lradius 36.3991
lwrist -9.3125
lhand -4.11379 -24.8688
lfingers 7.12502
lthumb 21.6447 3.94139
rfemur 12.0356 15.8531 24.3261
rtibia 0
rfoot -28.5099 -21.068
rtoes 7.26375
lfemur 21.0062 -10.0162 -13.1387
ltibia -19.9411
lfoot -4.99045 22.6632
ltoes -5.69944
50
root -1.11596 18.0851 5.78107 -1.98966 -2.02573 -4.89535
lowerback 2.68452 1.68144 3.13911
upperback -0.9507 2.36775 0.431969
thorax -2.37303 1.13686 -1.42306
lowerneck -12.4604 -2.63665 -0.657214
upperneck 18.0588 -3.83295 1.69307
head 7.66409 -1.71321 0.272391
rclavicle 5.04416e-015 -8.34896e-015
rhumerus -48.5575 -3.40905 -85.2499
rradius 43.1374
rwrist 6.73021
rhand -6.22975 -28.8015
rfingers 7.12502
rthumb 19.6115 -57.8323
lclavicle 5.04416e-015 -8.34896e-015
lhumerus -41.7568 9.02276 85.3553
lradius 36.3914
lwrist -9.30057
lhand -4.10667 -24.8823
lfingers 7.12502
lthumb 21.6515 3.92709
rfemur 12.0532 15.8608 24.3346
rtibia -2.22639e-014
rfoot -28.5076 -21.0637
rtoes 7.33486
lfemur 21.0322 -10.0448 -13.1412
ltibia -19.9541
lfoot -5.00501 22.6709
ltoes -5.492
51
root -1.11561 18.086 5.78122 -1.99578 -2.03288 -4.89835
lowerback 2.65211 1.68031 3.15629
upperback -0.946325 2.36556 0.435587
thorax -2.34989 1.13596 -1.42764
lowerneck -12.4555 -2.64295 -0.745258
upperneck 18.0983 -3.84659 1.80364
head 7.68056 -1.71483 0.321518
rclavicle 2.21148e-015 1.59028e-015
rhumerus -48.4315 -3.34437 -85.2378
rradius 43.1708
rwrist 6.65371
rhand -6.33751 -28.9033
rfingers 7.12502
rthumb 19.5079 -57.9447
lclavicle 2.21148e-015 1.59028e-015
lhumerus -41.7596 9.01519 85.3701
lradius 36.3888
lwrist -9.27802
lhand -4.11906 -24.876
lfingers 7.12502
lthumb 21.6396 3.93474
rfemur 12.0621 15.8671 24.3409
rtibia 7.95139e-015
rfoot -28.4723 -21.1363
rtoes 7.0031
lfemur 21.0479 -10.06 -13.1448
ltibia -19.9636
lfoot -5.00434 22.7088
ltoes -5.57104
52
root -1.11567 18.0856 5.78123 -2.00816 -2.02658 -4.91265
lowerback 2.63044 1.67959 3.17439
upperback -0.942925 2.36442 0.439525
thorax -2.33372 1.13545 -1.43282
lowerneck -12.4281 -2.65892 -0.823499
upperneck 18.1136 -3.87339 1.90582
head 7.68486 -1.7233 0.365391
rclavicle -2.09221e-014 -1.19271e-014
rhumerus -48.3089 -3.29774 -85.2075
rradius 43.2617
rwrist 6.56232
rhand -6.28389 -29.0725
rfingers 7.12502
rthumb 19.5594 -58.1087
lclavicle -2.09221e-014 -1.19271e-014
lhumerus -41.7705 8.99102 85.3791
lradius 36.393
lwrist -9.26595
lhand -4.14881 -24.884
lfingers 7.12502
lthumb 21.6111 3.93007
rfemur 12.0792 15.8582 24.3623
rtibia -3.18055e-015
rfoot -28.4571 -21.182
rtoes 6.75904
lfemur 21.0604 -10.003 -13.1231
ltibia -19.969
lfoot -4.97955 22.6899
ltoes -5.92777
53
root -1.11625 18.0846 5.78033 -2.01211 -2.02992 -4.93314
lowerback 2.62804 1.68101 3.18403
upperback -0.948494 2.36685 0.446738
thorax -2.33792 1.13644 -1.43094
lowerneck -12.4483 -2.6643 -0.900683
upperneck 18.1667 -3.88241 1.9865
head 7.70942 -1.72448 0.403037
rclavicle -4.67144e-015 5.96354e-015
rhumerus -48.1794 -3.25629 -85.1767
rradius 43.3371
rwrist 6.57559
rhand -6.20952 -29.1991
rfingers 7.12502
rthumb 19.6309 -58.2279
lclavicle -4.67144e-015 5.96354e-015
lhumerus -41.7845 8.97998 85.3785
lradius 36.3955
lwrist -9.26871
lhand -4.20992 -24.916
lfingers 7.12502
lthumb 21.5524 3.90482
rfemur 12.0814 15.8598 24.3865
rtibia -9.54166e-015
rfoot -28.482 -21.1488
rtoes 6.87915
lfemur 21.0647 -9.95489 -13.0896
ltibia -19.981
lfoot -4.96057 22.6831
ltoes -6.05421
